<?xml version="1.0" standalone="no"?>
<!DOCTYPE svg PUBLIC "-//W3C//DTD SVG 20010904//EN"
 "http://www.w3.org/TR/2001/REC-SVG-20010904/DTD/svg10.dtd">
<svg version="1.0" xmlns="http://www.w3.org/2000/svg"
 width="120.000000pt" height="27.000000pt" viewBox="0 0 120.000000 27.000000"
 preserveAspectRatio="xMidYMid meet">

<g transform="translate(0.000000,27.000000) scale(0.100000,-0.100000)"
fill="#000000" stroke="none">
<path d="M967 240 c5 -19 12 -21 67 -18 49 2 61 7 64 21 3 15 -5 17 -66 17
-66 0 -70 -1 -65 -20z"/>
<path d="M37 232 c-33 -36 -22 -61 38 -87 39 -18 55 -30 55 -44 0 -35 -62 -43
-82 -11 -16 25 -40 27 -31 3 10 -29 34 -43 75 -43 28 0 41 6 52 23 24 35 10
64 -40 83 -55 21 -71 38 -54 59 18 21 57 19 70 -5 12 -23 30 -27 30 -7 0 42
-83 63 -113 29z"/>
<path d="M720 150 c0 -60 4 -100 10 -100 6 0 10 40 10 100 0 60 -4 100 -10
100 -6 0 -10 -40 -10 -100z"/>
<path d="M974 125 l-2 -85 52 2 c28 1 75 -2 103 -6 46 -7 54 -6 59 9 11 28
-10 50 -52 55 l-39 5 -3 53 -3 52 -57 0 -57 0 -1 -85z"/>
<path d="M209 181 c-13 -11 -21 -23 -17 -27 5 -4 17 1 27 10 23 21 54 18 59
-6 2 -12 -5 -19 -25 -24 -54 -12 -61 -15 -67 -30 -3 -9 -1 -24 4 -35 9 -16 20
-19 65 -17 l55 2 0 53 c0 83 -48 117 -101 74z m81 -67 c0 -3 -5 -14 -10 -25
-15 -27 -70 -27 -70 0 0 11 8 22 18 24 26 7 62 8 62 1z"/>
<path d="M368 193 c-27 -4 -28 -6 -28 -74 0 -82 16 -92 22 -14 5 60 18 81 42
72 12 -5 16 -21 16 -67 0 -33 4 -60 10 -60 6 0 10 22 10 48 0 55 19 88 44 79
12 -5 16 -20 16 -67 0 -35 4 -60 10 -60 7 0 10 25 8 66 -3 77 -21 99 -59 76
-15 -10 -24 -11 -32 -3 -6 6 -16 10 -21 10 -6 -1 -23 -4 -38 -6z"/>
<path d="M601 191 c-8 -5 -20 -7 -28 -4 -10 4 -13 -13 -13 -81 0 -51 4 -86 10
-86 6 0 10 9 10 19 0 17 5 19 33 14 44 -7 67 16 67 68 0 58 -41 94 -79 70z
m49 -30 c14 -28 12 -67 -5 -81 -37 -31 -80 24 -57 75 14 30 47 33 62 6z"/>
<path d="M799 181 c-18 -14 -24 -29 -24 -61 0 -48 21 -70 66 -70 31 0 71 31
49 38 -7 3 -16 -1 -20 -8 -4 -6 -20 -10 -36 -8 -21 2 -30 9 -32 26 -3 20 0 22
47 22 44 0 51 3 51 20 0 25 -34 60 -59 60 -10 0 -29 -9 -42 -19z m71 -16 c17
-21 3 -35 -36 -35 -35 0 -44 16 -22 38 16 16 43 15 58 -3z"/>
</g>
</svg>
